<svg width="2500" height="531" viewBox="0 0 2500 531" fill="none" xmlns="http://www.w3.org/2000/svg">
<g clip-path="url(#clip0)">
<path d="M770.723 108.26C795.865 108.26 818.281 112.615 837.97 121.327C857.73 130.038 873.134 141.936 884.182 157.022C895.231 172.107 900.755 188.928 900.755 207.484V404.126C900.755 406.109 900.082 407.773 898.737 409.119C897.391 410.465 895.727 411.137 893.744 411.137H825.859C823.947 411.137 822.318 410.465 820.972 409.119C819.627 407.773 818.954 406.109 818.954 404.126V385.004C818.954 383.87 818.564 383.127 817.785 382.773C817.006 382.348 816.227 382.702 815.448 383.835C799.229 405.153 773.131 415.812 737.152 415.812C706.981 415.812 682.618 408.482 664.062 393.821C645.506 379.09 636.229 357.418 636.229 328.805C636.229 298.988 646.64 275.864 667.462 259.433C688.355 243.002 718.136 234.786 756.806 234.786H815.979C817.962 234.786 818.954 233.83 818.954 231.918V219.063C818.954 206.315 815.059 196.364 807.268 189.211C799.548 182.058 787.968 178.481 772.529 178.481C760.56 178.481 750.609 180.606 742.677 184.856C734.744 189.105 729.61 195.125 727.272 202.916C726.139 207.165 723.625 209.077 719.73 208.652L649.508 199.41C644.904 198.631 642.78 196.896 643.134 194.204C644.692 177.915 651.172 163.219 662.575 150.117C673.978 136.943 689.063 126.674 707.831 119.308C726.6 111.943 747.563 108.26 770.723 108.26ZM759.143 354.833C775.787 354.833 789.916 350.406 801.531 341.553C813.146 332.629 818.954 321.191 818.954 307.239V286.417C818.954 284.505 817.962 283.548 815.979 283.548H774.229C756.806 283.548 743.172 286.842 733.328 293.428C723.483 299.944 718.561 309.222 718.561 321.262C718.561 331.673 722.244 339.889 729.61 345.909C736.975 351.858 746.82 354.833 759.143 354.833ZM1140.36 119.946C1140.36 117.963 1141.03 116.298 1142.38 114.953C1143.72 113.607 1145.35 112.934 1147.27 112.934H1215.15C1217.06 112.934 1218.69 113.607 1220.04 114.953C1221.45 116.298 1222.16 117.963 1222.16 119.946V384.472C1222.16 435.111 1207.54 471.267 1178.29 492.939C1149.11 514.611 1111.5 525.447 1065.46 525.447C1051.94 525.447 1036.85 524.491 1020.21 522.579C1016.38 522.154 1014.47 519.639 1014.47 515.036L1016.81 455.225C1016.81 450.197 1019.5 448.072 1024.88 448.851C1038.83 451.188 1051.58 452.357 1063.13 452.357C1087.91 452.357 1106.97 446.939 1120.28 436.103C1133.67 425.267 1140.36 407.844 1140.36 383.835C1140.36 382.702 1139.97 382.029 1139.19 381.816C1138.41 381.604 1137.63 381.887 1136.85 382.666C1122.12 398.531 1100.66 406.463 1072.48 406.463C1047.33 406.463 1024.21 400.372 1003.1 388.191C982.069 376.009 967.09 356.391 958.166 329.336C952.358 311.559 949.454 288.542 949.454 260.283C949.454 230.112 952.925 205.572 959.866 186.662C968.01 163.006 981.75 144.026 1001.08 129.719C1020.42 115.413 1042.87 108.26 1068.44 108.26C1098.18 108.26 1120.99 117.183 1136.85 135.031C1137.63 135.739 1138.41 136.023 1139.19 135.881C1139.97 135.668 1140.36 134.996 1140.36 133.862V119.946V119.946ZM1135.69 307.239C1138.8 295.695 1140.36 279.866 1140.36 259.752C1140.36 247.712 1139.97 238.434 1139.19 231.918C1138.41 225.331 1137.07 219.134 1135.15 213.327C1131.61 202.845 1125.77 194.417 1117.63 188.043C1109.55 181.669 1099.53 178.481 1087.56 178.481C1075.95 178.481 1066.07 181.669 1057.92 188.043C1049.85 194.417 1043.86 202.845 1039.97 213.327C1034.58 224.942 1031.89 240.594 1031.89 260.283C1031.89 281.955 1034.2 297.43 1038.8 306.708C1042.27 317.119 1048.36 325.547 1057.07 331.992C1065.78 338.366 1076.12 341.553 1088.09 341.553C1100.49 341.553 1110.72 338.366 1118.79 331.992C1126.94 325.547 1132.57 317.296 1135.69 307.239ZM1544.73 231.281C1546.99 246.012 1547.77 262.443 1547.06 280.574C1546.64 285.248 1544.12 287.585 1539.52 287.585H1360.19C1357.86 287.585 1357.08 288.542 1357.86 290.454C1359.06 298.174 1361.19 305.929 1364.23 313.719C1374.29 335.321 1394.79 346.121 1425.74 346.121C1450.53 345.767 1470.08 335.71 1484.38 315.95C1485.94 313.684 1487.68 312.551 1489.59 312.551C1490.72 312.551 1492.07 313.294 1493.63 314.782L1535.38 356.001C1537.36 357.984 1538.35 359.719 1538.35 361.207C1538.35 361.986 1537.57 363.544 1536.01 365.881C1523.27 381.746 1506.84 394.034 1486.72 402.745C1466.61 411.456 1444.55 415.812 1420.54 415.812C1387.25 415.812 1359.1 408.269 1336.08 393.184C1313.13 378.098 1296.63 356.993 1286.57 329.867C1278.43 310.532 1274.36 285.213 1274.36 253.909C1274.36 232.662 1277.26 213.893 1283.07 197.604C1291.92 170.195 1307.47 148.381 1329.71 132.163C1351.94 115.873 1378.36 107.729 1408.96 107.729C1447.63 107.729 1478.65 118.954 1502.02 141.405C1525.46 163.786 1539.7 193.744 1544.73 231.281ZM1409.49 178.481C1385.12 178.481 1369.08 189.884 1361.36 212.689C1359.81 217.718 1358.46 223.915 1357.33 231.281C1357.33 233.193 1358.28 234.149 1360.19 234.149H1460.59C1462.92 234.149 1463.7 233.193 1462.92 231.281C1460.94 220.09 1459.95 214.672 1459.95 215.027C1456.48 203.411 1450.39 194.417 1441.68 188.043C1433.04 181.669 1422.31 178.481 1409.49 178.481Z" fill="#536878"/>
<path d="M1861.48 188.894C1868.78 209.008 1872.43 233.017 1872.43 260.922C1872.43 287.551 1869.17 310.923 1862.65 331.037C1853.73 357.384 1839.49 378.099 1819.95 393.185C1800.4 408.27 1777.31 415.813 1750.68 415.813C1722.42 415.813 1700.18 405.154 1683.96 383.836C1683.18 383.057 1682.41 382.774 1681.63 382.986C1680.85 383.199 1680.46 383.872 1680.46 385.005V404.127C1680.46 406.11 1679.78 407.775 1678.44 409.12C1677.09 410.466 1675.43 411.139 1673.45 411.139H1605.56C1603.65 411.139 1602.02 410.466 1600.67 409.12C1599.33 407.775 1598.66 406.11 1598.66 404.127V12.0116C1598.66 10.0993 1599.33 8.47036 1600.67 7.12471C1602.02 5.70824 1603.65 5 1605.56 5H1673.45C1675.43 5 1677.09 5.70824 1678.44 7.12471C1679.78 8.47036 1680.46 10.0993 1680.46 12.0116V136.095C1680.46 137.299 1680.85 138.113 1681.63 138.538C1682.41 138.892 1683.18 138.467 1683.96 137.263C1699.05 117.928 1720.51 108.261 1748.34 108.261C1776.53 108.261 1800.19 115.52 1819.31 130.039C1838.5 144.558 1852.56 164.176 1861.48 188.894V188.894ZM1775.54 320.626C1783.68 305.966 1787.76 286.631 1787.76 262.621C1787.76 235.921 1783.12 215.417 1773.84 201.111C1764.56 186.026 1750.82 178.483 1732.62 178.483C1715.62 178.483 1702.66 186.026 1693.74 201.111C1685.24 215.842 1680.99 236.169 1680.99 262.09C1680.99 287.941 1684.88 307.453 1692.67 320.626C1701.95 337.27 1715.48 345.591 1733.26 345.591C1752.17 345.591 1766.26 337.27 1775.54 320.626ZM2055.85 415.813C2023.34 415.813 1995.47 407.314 1972.24 390.317C1949.08 373.248 1933.21 350.018 1924.64 320.626C1919.26 302.424 1916.57 282.7 1916.57 261.453C1916.57 238.648 1919.26 218.144 1924.64 199.942C1933.57 171.33 1949.61 148.914 1972.77 132.695C1996 116.406 2023.87 108.261 2056.38 108.261C2088.11 108.261 2115.16 116.3 2137.54 132.377C2159.99 148.454 2175.86 170.798 2185.13 199.411C2191.37 218.746 2194.48 239.037 2194.48 260.284C2194.48 281.177 2191.76 300.725 2186.3 318.926C2177.8 349.097 2162.05 372.788 2139.03 389.998C2116.01 407.208 2088.28 415.813 2055.85 415.813ZM2055.85 345.591C2068.59 345.591 2079.39 341.731 2088.25 334.012C2097.17 326.221 2103.58 315.562 2107.48 302.035C2110.52 289.711 2112.04 276.184 2112.04 261.453C2112.04 245.234 2110.52 231.494 2107.48 220.233C2103.23 207.131 2096.64 196.897 2087.72 189.531C2078.79 182.166 2067.96 178.483 2055.21 178.483C2042.03 178.483 2031.09 182.166 2022.38 189.531C2013.74 196.897 2007.47 207.131 2003.58 220.233C2000.46 229.511 1998.9 243.251 1998.9 261.453C1998.9 278.875 2000.28 292.403 2003.05 302.035C2006.87 315.562 2013.32 326.221 2022.38 334.012C2031.52 341.731 2042.67 345.591 2055.85 345.591ZM2219.43 411.139C2216.74 411.139 2214.9 410.289 2213.91 408.589C2212.92 406.818 2213.2 404.765 2214.76 402.427L2308.14 263.79C2308.92 262.657 2308.92 261.488 2308.14 260.284L2214.76 121.647C2213.98 120.089 2213.59 118.743 2213.59 117.61C2213.59 114.494 2215.54 112.935 2219.43 112.935H2291.89C2295.43 112.935 2298.15 114.494 2300.07 117.61L2352.23 197.074C2353.79 199.411 2355.17 199.411 2356.37 197.074L2408.53 117.61C2410.45 114.494 2413.14 112.935 2416.61 112.935H2494.37C2497.06 112.935 2498.8 113.821 2499.58 115.591C2500.36 117.291 2499.97 119.31 2498.41 121.647L2405.66 260.284C2405.24 261.488 2405.24 262.657 2405.66 263.79L2498.41 402.427C2499.19 403.561 2499.58 404.906 2499.58 406.464C2499.58 409.581 2497.84 411.139 2494.37 411.139H2421.28C2417.81 411.139 2415.12 409.581 2413.21 406.464L2360.94 327C2359.81 324.663 2358.64 324.663 2357.43 327L2305.27 406.464C2303.36 409.581 2300.67 411.139 2297.2 411.139H2219.43Z" fill="#36454F"/>
<path fill-rule="evenodd" clip-rule="evenodd" d="M518.486 17.4043V524.712L11.1777 17.4043H518.486Z" fill="#536878"/>
<path fill-rule="evenodd" clip-rule="evenodd" d="M518.486 17.4043V524.712L11.1777 17.4043H518.486Z" stroke="#536878" stroke-width="20.3972" stroke-miterlimit="10" stroke-linejoin="round"/>
<path fill-rule="evenodd" clip-rule="evenodd" d="M10.6191 525.314V18.0059L517.927 525.314H10.6191Z" stroke="#36454F" stroke-width="20.3972" stroke-miterlimit="10" stroke-linejoin="round"/>
</g>
<defs>
<clipPath id="clip0">
<rect width="2500" height="531" fill="white"/>
</clipPath>
</defs>
</svg>
